<svg id="Layer_1" data-name="Layer 1" xmlns="http://www.w3.org/2000/svg" xmlns:xlink="http://www.w3.org/1999/xlink" viewBox="0 0 729 1026.36"><defs><style>.cls-1{fill:#fff;}.cls-2{fill:url(#linear-gradient);}.cls-3{fill:url(#linear-gradient-2);}.cls-4{fill:#b55353;}.cls-5{fill:#b95c5b;}</style><linearGradient id="linear-gradient" x1="838" y1="831.32" x2="838" y2="353.35" gradientUnits="userSpaceOnUse"><stop offset="0" stop-color="#ab0a21"/><stop offset="1" stop-color="#ef0a20"/></linearGradient><linearGradient id="linear-gradient-2" x1="1205.92" y1="831.34" x2="1205.92" y2="353.34" xlink:href="#linear-gradient"/></defs><path class="cls-1" d="M657,348.06c1.87.06,1.64-1.38,1.6-2.45-.2-5.6.61-11.15.89-16.73.47-9.71,1.27-19.41,2.25-29.08.77-7.58,8.83-14.65,16.69-15.12.64,0,1.3,0,2,0q152.37,0,304.74,0a19.47,19.47,0,0,1,13.47,5.22,18.51,18.51,0,0,1,6.07,14.28c.05,22.41-.38,44.84.25,67.23.84,29.69,0,59.39.79,89.06.77,29,0,58.08.77,87.1.81,29.69,0,59.39.79,89.06.78,29.17,0,58.34.78,87.49.8,29.43.38,58.85.69,88.28a19,19,0,0,0,3.31,11.32c3.44,4.85,6.35,10.09,9.71,15.5,2.9-3.71,4.94-7.58,7.29-11.23.64-1,1.16-2.05,1.86-3,2.7-3.55,3.54-7.43,3.72-12,1.1-28.39,0-56.78.76-85.15.83-30.47,0-61,.8-91.4.74-28.26,0-56.52.76-84.76.8-30.34,0-60.69.81-91,.75-28.65-.08-57.3.78-85.93.71-23.82.21-47.64.65-71.46a18.91,18.91,0,0,1,18.7-18.63c15.76-.07,31.52,0,47.28,0q128.92,0,257.85,0c7.59,0,13.17,3.39,17.17,9.66a12.25,12.25,0,0,1,1.91,5.48q.92,10.26,1.68,20.55c.94,13.22,1.2,26.48,1.77,39.71.46,10.94.61,21.87.29,32.77-.24,7.79-.15,15.61-.69,23.38-.58,8.41-.77,16.86-1.56,25.25-1.3,13.67-2.63,27.34-4.38,41q-4.79,37.48-13.23,74.28c-4.71,20.66-10.33,41.06-16.73,61.26-7.47,23.57-16.19,46.65-26,69.37-7.24,16.87-15,33.5-23.49,49.76q-16.72,32-36.24,62.4-17.93,27.93-38.13,54.25c-9.24,12.07-18.79,23.91-28.74,35.41-11.49,13.28-23.48,26.08-35.52,38.86-9.3,9.87-19.15,19.13-29,28.4-16.17,15.22-33.11,29.61-50.57,43.38-12.06,9.5-24.33,18.69-37.08,27.23a143.9,143.9,0,0,1-12.92,8,19.82,19.82,0,0,1-20.41-.56,395.06,395.06,0,0,1-39.48-27.21q-21.3-16.42-41.53-34.18Q915,959.69,900.36,945.64c-4.7-4.5-9.5-8.9-14-13.61-13.19-13.82-26.26-27.74-38.71-42.26q-21.33-24.88-40.71-51.3-22-30.09-41.08-62.16-17.88-30-33-61.56c-6-12.43-11.48-25-16.77-37.79q-11.69-28.12-21-57.1A753.7,753.7,0,0,1,674,539.25q-4.2-20.6-7.43-41.36c-1.44-9.21-2.44-18.51-3.54-27.78s-1.71-18.32-2.77-27.46c-.7-6-.6-12.19-1-18.28-.35-4.93-.69-9.84-.76-14.78,0-1,.2-2.25-1.49-2.1Zm175.14-24.95H706.33c-.91,0-1.83.06-2.73,0-1.94-.15-2.67.55-2.84,2.62-.75,9.59-1.16,19.21-1.34,28.78-.35,17.82-.63,35.65.34,53.49.58,10.75,1,21.53,1.8,32.28.71,9.69,1.79,19.35,2.87,29,1,9,2.15,18,3.57,27q3.46,21.9,8.2,43.59,7.68,35.25,18.68,69.59c3.65,11.4,7.72,22.64,11.94,33.84q10.26,27.21,22.75,53.46,15.09,31.75,33.18,61.92,17.73,29.67,38.15,57.54c11.69,15.94,23.88,31.47,36.73,46.51,10.3,12.06,20.85,23.9,31.85,35.31,9,9.36,18.2,18.59,27.78,27.42,8.22,7.58,16.44,15.14,24.89,22.47q20.46,17.77,42.11,34.08c4.68,3.51,9.61,6.69,14.25,10.25,2.52,1.92,4.64,1.83,6.94-.13.69-.59,1.52-1,2.26-1.53q18-13,35.3-27,25-20.25,48.27-42.48,19.46-18.61,37.51-38.65,15.29-17,29.73-34.58,17.64-21.61,33.59-44.51c8.34-12,16.29-24.15,24-36.54q14.28-23.07,26.75-47.17c5-9.7,10-19.47,14.43-29.45,4.19-9.38,8.5-18.72,12.38-28.23,7.67-18.77,14.69-37.79,20.75-57.17,3.29-10.54,6.43-21.13,9.26-31.8,4.65-17.57,8.7-35.28,12-53.17s6.09-35.78,8.18-53.82c1.29-11.2,2.29-22.44,3.12-33.69.76-10.36,1.49-20.74,1.53-31.11.07-16.66.62-33.31-.43-50-.49-7.77-.73-15.58-1-23.37-.17-5,.53-4.76-5-4.76H1085.32c-.78,0-1.57.05-2.34,0-1.83-.13-2.53.64-2.54,2.5,0,7-.37,14-.5,21-.56,29.55,0,59.1-.8,88.66-.78,29-.05,58.07-.76,87.11-.75,30.84,0,61.71-.82,92.57-.71,27.72,0,55.46-.74,83.2-.79,30.45.2,60.93-.85,91.4-.41,11.71-.11,23.45,0,35.18a15.69,15.69,0,0,1-2.39,8.82q-22.5,35.85-44.79,71.85c-1.85,3-3.6,6-5.47,9-1,1.52-1.61,1.52-2.63.14-.39-.51-.64-1.13-1-1.68q-11.53-18.55-23.09-37.1c-9.11-14.7-18.17-29.44-27.32-44.12a8.06,8.06,0,0,1-1.33-4.35c-.27-13.92-.08-27.84-.46-41.77-.81-29.41,0-58.84-.83-88.27-.8-29.28,0-58.58-.79-87.88s0-58.59-.77-87.89.1-58.85-.79-88.27c-.63-20.58-.38-41.18-.19-61.77.14-14.71-1.08-29.39-.73-44.1.11-4.23,0-4.24-4.25-4.25h-127Z" transform="translate(-657 -11.24)"/><path class="cls-1" d="M1021.75,265.9H893.62a22.91,22.91,0,0,1-15.14-5.19c-8.83-7.26-8.28-20.15-1.83-26.72,5.05-5.15,11.06-7,17.92-7.05q43.56,0,87.11,0c5.6,0,11.2,0,16.8,0,3,0,3-.08,3-3.1,0-19.68,0-39.35,0-59a3.42,3.42,0,0,0-1.92-3.43c-11.1-6.26-22.15-12.6-33.21-18.92-1.13-.65-2.26-1.29-3.35-2-5.77-3.74-5.94-8.3-5-13.64.78-4.51,5.5-8.15,10.59-8.37a12.43,12.43,0,0,1,6.73,1.56c14.67,8.39,29.38,16.72,44,25.21,2,1.17,3.32,1.06,5.27-.09,13.56-8,27.19-15.82,40.84-23.65a26.19,26.19,0,0,1,6-2.77,11.41,11.41,0,0,1,14.62,10.79c.23,5.32-2,8.88-6.5,11.45-11.28,6.47-22.46,13.11-33.78,19.5a4.85,4.85,0,0,0-2.79,4.94c.08,19.15,0,38.31,0,57.46,0,4.07,0,4.09,4,4.09h102c5.14,0,10.05,1,14.42,3.9a18.61,18.61,0,0,1,7.31,22.29A19.33,19.33,0,0,1,1159,264.4a25.18,25.18,0,0,1-8.77,1.53Q1086,265.86,1021.75,265.9Z" transform="translate(-657 -11.24)"/><path class="cls-1" d="M1021.36,85.41c-18.76.6-36.7-14.72-36.7-37,0-21.09,16.12-37.16,37.2-37.12,20.8,0,37.3,15.32,37.26,37.43C1059.07,70.61,1041.2,86.44,1021.36,85.41Zm.4-23.47c6.44,1,14.1-4.91,14-13.53a13.65,13.65,0,0,0-13.67-13.74c-8-.14-13.47,6-14,13.82C1007.53,55.64,1014.27,61.93,1021.76,61.94Z" transform="translate(-657 -11.24)"/><path class="cls-1" d="M1086.09,89a11.17,11.17,0,0,1-5.88,10.53c-16.18,9.4-32.49,18.59-48.52,28.25-7,4.2-13,4-19.88-.29C999.66,120,987,113.27,974.6,106.2c-3.72-2.12-7.48-4.2-11.15-6.42-6.1-3.69-6.55-8.64-5.26-14.16,1.25-5.31,6.49-8.35,12.36-8.06a12.06,12.06,0,0,1,5.43,2q13.28,7.42,26.47,15c5.87,3.35,11.73,6.72,17.55,10.16a3.48,3.48,0,0,0,4-.08q20.88-12.17,41.81-24.27a18.81,18.81,0,0,1,8.71-3C1080.43,77,1086.89,82.92,1086.09,89Z" transform="translate(-657 -11.24)"/><path class="cls-2" d="M945.29,831.32a333.11,333.11,0,0,1-53.82-38.46c-11.41-10.1-22.46-20.56-33-31.55A508.51,508.51,0,0,1,810.8,703.7a520.76,520.76,0,0,1-32.13-51.18c-4.12-7.52-8.23-15.06-11.75-22.89a2.42,2.42,0,0,1-.28-2.22h45.71c-1.11-2.2-2.85-3-4.08-4.18-19.31-18.7-33.79-40.72-45-65C751.62,533.19,744,507,738.58,480q-4-19.83-5.94-40c-1.1-11.11-1.84-22.22-2.42-33.37-.69-13.15-.21-26.28-.37-39.42-.05-3.88.51-7.76.65-11.65.06-1.71.75-2.31,2.37-2.18.9.07,1.82,0,2.73,0,54.56,0,109.12.09,163.68,0,16.21,0,36.28,11.7,40.89,31.34a37.15,37.15,0,0,1,1.15,8.46q0,75.44,0,150.88c0,.66,0,1.31,0,2,.11,1.44-.42,2.23-2,2.12-.78-.05-1.56,0-2.34,0H850.26c-4,0-4,0-5.17-3.94q-7.41-25.42-14.84-50.85a3.51,3.51,0,0,1-.17-2.81h46.75c3,0,3,.23,3-3q0-36.73,0-73.48c0-3.25,0-3.3-3.11-3.3h-125a4.74,4.74,0,0,0-.74.14c.47,1.18,1.61,1.12,2.53,1.43,11.93,4.05,23.83,8.17,35.81,12.07,2.36.77,3.4,1.95,3.53,4.31a451.24,451.24,0,0,0,6.34,52.47c5,28.64,12.65,56.5,24.91,82.95A222.26,222.26,0,0,0,859,618.37a211.27,211.27,0,0,0,57,45.51,42.88,42.88,0,0,1,7,4.47H845c-.71,1.88.2,3.15.61,4.41,5.28,16.1,12.42,31.42,20.25,46.4a433.66,433.66,0,0,0,26.86,44.35,556.42,556.42,0,0,0,38.24,49.24c5.1,5.89,10.16,11.79,15.24,17.69Z" transform="translate(-657 -11.24)"/><path class="cls-3" d="M1097.6,830.37c9.12-10.82,18.68-21.26,27.59-32.25A490.42,490.42,0,0,0,1174.27,726a350.29,350.29,0,0,0,22.59-49.19c.93-2.54,1.66-5.16,2.61-8.17h-78.56l-.26-.73c1.8-1.06,3.58-2.17,5.42-3.16A211.15,211.15,0,0,0,1212,579.36c13.69-24.77,22.64-51.26,28.77-78.78a436,436,0,0,0,8-48.33c.86-8,2-15.95,2.25-24,.07-2.28,1.22-3.05,3.19-3.7,12.21-4,24.37-8.21,36.54-12.34.73-.25,1.44-.55,2.51-1a4.41,4.41,0,0,0-3-.49q-61.14,0-122.27,0c-.66,0-1.31.05-2,0-1.61-.16-2.06.69-2,2.11,0,.65,0,1.3,0,2v72.31c0,3.65-.29,3.38,3.37,3.38H1214c-.53,4.34-2.09,8.2-3.2,12.15-3.85,13.61-7.87,27.18-11.82,40.77-.07.24-.21.47-.29.72-1.55,4.74-.54,3.93-5.16,4-14.84,0-29.69,0-44.53,0h-42.58c-4.33,0-3.92.25-3.92-4.07q0-75.06,0-150.1c0-13.35,5.85-23.81,16.29-31.7a43.81,43.81,0,0,1,27.25-8.89c54.17.13,108.34.06,162.51.07,5.78,0,4.53-.47,4.85,4.45a424.06,424.06,0,0,1,.49,42.93,511.33,511.33,0,0,1-4.24,51.52,450.93,450.93,0,0,1-8.77,47c-5.84,23.66-13.74,46.59-24.91,68.3-8.72,17-19.09,32.78-32.07,46.84-3.88,4.2-7.89,8.26-12.16,12.12.58.22-.06,0,.21.4.06.1.17.22.26.22H1277c.88,1.21.15,1.95-.23,2.73a510.69,510.69,0,0,1-67,104,500.7,500.7,0,0,1-38.42,41.47c-16,15.39-32.62,30.2-51.26,42.47-7,4.64-14.3,9-21.46,13.47Z" transform="translate(-657 -11.24)"/><path class="cls-4" d="M945.29,831.32l.88-.88c1,.69,2.12,1.27,2.32,3.21C947.12,832.79,946,832.42,945.29,831.32Z" transform="translate(-657 -11.24)"/><path class="cls-5" d="M1097.6,830.37l1,1c-.62,1-1.61,1.42-3.14,1.84A5.11,5.11,0,0,1,1097.6,830.37Z" transform="translate(-657 -11.24)"/></svg>